<?xml version="1.0" standalone="no"?><!DOCTYPE svg PUBLIC "-//W3C//DTD SVG 1.1//EN" "http://www.w3.org/Graphics/SVG/1.1/DTD/svg11.dtd"><svg class="icon" width="200px" height="200.00px" viewBox="0 0 1024 1024" version="1.1" xmlns="http://www.w3.org/2000/svg"><path fill="currentColor" d="M268.352 280.96h7.168a29.056 29.056 0 0 0 25.152-26.624 41.6 41.6 0 0 0 0-17.6 110.912 110.912 0 0 1-3.648-41.984c4.8-31.616 22.016-60.032 47.744-78.976 25.152-19.2 57.024-27.392 88.32-22.592 32 2.56 61.44 17.92 81.856 42.752 20.608 24.384 30.72 56.064 27.968 87.936a38.4 38.4 0 0 0 0 8.96c-3.2 12.608 3.584 25.6 15.808 30.08a30.848 30.848 0 0 0 26.88 0 35.84 35.84 0 0 0 16.192-21.824v-7.552c6.784-47.68-7.04-96-38.08-132.8A190.976 190.976 0 0 0 441.344 33.92a179.456 179.456 0 0 0-204.224 153.6c-2.752 24.256-0.064 48.768 7.872 71.808 3.264 11.008 12.992 18.88 24.448 19.712l-1.088 1.792z m153.28-96.64h-1.856A93.696 93.696 0 0 0 327.68 275.2v287.104a10.048 10.048 0 0 1-2.944 5.376 6.848 6.848 0 0 1-6.4 0l-28.416-27.264a91.904 91.904 0 0 0-64.96-24.064c-23.808 0.32-46.72 9.088-64.64 24.768a94.72 94.72 0 0 0-30.848 58.496c-4.672 27.712 2.24 56.128 19.072 78.656l47.36 64.96c50.24 64.256 119.872 137.792 140.672 161.856 65.344 82.56 154.752 87.552 246.272 86.848h35.84c113.792 0 189.568-35.84 231.872-104.064a365.376 365.376 0 0 0 42.752-203.52V518.144a86.848 86.848 0 0 0-26.56-63.488 90.432 90.432 0 0 0-63.168-27.648h-3.968c-13.888 0.256-27.52 3.264-40.192 8.96a90.112 90.112 0 0 0-82.56-51.712 98.688 98.688 0 0 0-41.984 9.728 91.52 91.52 0 0 0-115.584-46.336V275.904a92.224 92.224 0 0 0-27.968-65.344 88.64 88.64 0 0 0-67.2-25.152l-2.432-1.024zM333.696 636.288a62.464 62.464 0 0 0 60.288-65.664l-2.176-299.328a32.64 32.64 0 0 1 8.96-23.68 35.84 35.84 0 0 1 24.064-11.52 35.84 35.84 0 0 1 22.592 9.344 35.84 35.84 0 0 1 8.64 23.36v277.76a30.848 30.848 0 0 0 32.32 24.064 32.64 32.64 0 0 0 30.464-26.88v-115.2a32.32 32.32 0 0 1 9.344-23.04 29.44 29.44 0 0 1 22.272-9.344 27.648 27.648 0 0 1 33.728 19.072c1.28 4.48 1.28 9.152 0 13.632v150.4a32 32 0 0 0 47.744 27.264 31.232 31.232 0 0 0 15.04-27.264V471.488c0-8.704 3.392-17.024 9.344-23.296a35.84 35.84 0 0 1 57.472 23.296v133.12c2.112 15.36 15.36 26.752 30.848 26.624a29.76 29.76 0 0 0 30.528-26.88V514.56a31.616 31.616 0 0 1 30.464-32.32 27.264 27.264 0 0 1 22.656 9.344c6.016 5.824 9.408 13.888 9.28 22.272v166.208a334.08 334.08 0 0 1-26.176 170.112c-19.392 57.792-82.176 89.344-181.952 89.344h-27.328c-39.168 0.64-78.4-1.344-117.312-6.08a152.96 152.96 0 0 1-100.48-61.376l-188.16-235.456a35.84 35.84 0 0 1-11.456-25.472 33.728 33.728 0 0 1 11.52-24.768 41.984 41.984 0 0 1 54.912 0l11.52 10.368 23.68 22.272c11.776 10.944 27.264 17.088 43.392 17.28h3.968zM261.696 282.688q-16-4.288-21.248-21.824-12.416-35.968-8.064-73.92 10.24-76.352 71.808-122.688Q365.824 17.92 441.92 29.184q76.16 9.6 125.44 68.48 49.984 59.392 39.232 136.192v7.808l-0.128 0.64q-4.096 16.128-18.368 24.768l-0.192 0.128-0.192 0.064q-15.424 7.488-30.912 0.128-10.688-4.096-16-14.272-5.12-9.856-2.752-20.608-0.448-4.608 0.064-9.152 4.096-47.744-26.88-84.416-30.592-37.12-78.528-40.96h-0.32q-46.976-7.296-84.736 21.696-38.656 28.352-45.824 75.712-2.176 20.352 3.456 40.064v0.32q2.112 9.6 0.128 19.264-1.024 11.776-9.152 20.352-8.192 8.704-20.096 10.24l-0.32 0.064h-16l1.856-3.008z m15.36-6.848l0.448-0.896-7.68-0.64q-15.744-1.152-20.224-16.256v-0.256q-11.776-33.92-7.68-69.568 9.664-72.384 68.096-116.288 58.368-43.968 130.752-33.216Q513.152 47.872 560 103.808q47.296 56.32 36.992 129.024l-0.064 0.384v7.232q-3.2 11.84-13.632 18.304-11.264 5.376-22.528-0.128l-0.256-0.064-0.192-0.064q-7.424-2.816-11.072-9.792-3.712-7.04-1.728-14.72l0.192-0.832-0.064-0.896q-0.512-3.904 0-7.872v-0.128q4.48-51.776-29.056-91.392-33.088-40.256-84.992-44.416-50.944-7.808-91.712 23.488-41.856 30.72-49.664 82.112v0.192q-2.368 22.208 3.712 43.712 1.6 7.68 0 15.36l-0.128 0.32v0.32q-1.472 18.56-18.88 21.888zM424.96 180.608l-2.368-1.024h-2.816q-39.552 0.576-67.648 28.288-28.16 27.712-29.376 67.2v286.72q-0.256 1.024-0.896 1.92h-0.896l-27.776-26.816H293.12q-29.056-26.56-68.352-25.344-38.528 0.512-67.648 25.984-27.648 24.704-32.448 61.44-7.616 45.312 19.968 82.176L192 746.112q37.312 47.68 115.84 134.272 19.52 21.44 24.96 27.776 45.056 56.896 115.776 76.16 47.68 13.12 134.208 12.416h35.84q169.92 0 235.968-106.368l0.064-0.128 0.064-0.128q52.224-96.576 43.328-205.952V518.144q0.448-39.424-27.968-66.88-27.264-28.224-66.496-29.056h-4.032q-19.776 0.32-37.952 7.552-11.776-22.272-33.408-35.84-23.616-14.72-51.456-14.464-20.736 0.192-39.68 8.256-16.256-30.848-49.152-44.032-31.872-12.8-63.872-2.752V275.84q-0.384-40.576-29.44-68.8-29.12-28.416-69.632-26.496z m-4.352 8.576l1.6 0.64 1.024 0.448h1.152q36.992-2.176 63.488 23.68 26.24 25.472 26.56 61.952v78.72l6.528-2.496q31.744-12.16 63.36 0.448 31.616 12.672 46.144 43.456l2.048 4.352 4.352-2.112q18.944-9.024 40-9.216 25.024-0.256 46.272 12.992 21.184 13.312 31.872 35.968l1.984 4.288 4.352-1.92q18.24-8.256 38.208-8.576h3.84q35.328 0.768 59.84 26.176l0.128 0.128q25.472 24.576 25.088 60.032V684.8q8.704 106.624-42.112 200.704-63.232 101.76-227.712 101.76h-35.904q-85.248 0.64-131.648-12.096-67.648-18.56-110.72-72.96l-0.128-0.128v-0.064q-5.504-6.336-25.216-28.032-78.336-86.272-115.328-133.632l-47.36-64.896q-25.152-33.6-18.176-74.944v-0.192q4.352-33.28 29.312-55.488 26.432-23.104 61.632-23.616 35.392-1.088 61.504 22.784l28.8 27.648 0.576 0.32q5.504 3.008 11.008 0l0.64-0.32 0.448-0.448q3.392-3.328 4.224-7.936l0.064-0.448V275.2q1.152-35.584 26.496-60.544 25.408-25.024 60.928-25.6h0.832z m-87.04 442.24h-3.84q-23.168-0.192-40.128-15.872l-23.808-22.4-11.52-10.368q-13.184-11.456-30.592-11.456-17.472 0-30.656 11.392-12.8 11.264-13.12 28.288v0.256q0.384 16.96 12.8 28.608l187.776 235.072q38.592 53.248 103.552 63.232h0.192q58.752 7.168 117.888 6.144h27.328q75.648 0 123.264-23.488 47.872-23.68 63.168-68.928 36.16-82.56 26.496-172.16V513.92q0.192-15.104-10.624-25.6-10.496-11.968-26.368-10.88-14.848 0.576-25.088 11.392-10.24 10.88-9.92 25.792V604.16q-1.024 9.6-8.32 16.064-7.424 6.528-17.28 6.272h-0.192q-9.792 0.064-17.28-6.336-7.296-6.272-8.704-15.808v-133.12l-0.064-0.32q-3.328-23.168-24.96-32-21.632-8.704-40.128 5.504l-0.32 0.256-0.256 0.256q-10.688 11.2-10.688 26.624v107.776q0.32 15.168-12.672 23.04-13.44 7.68-26.88 0t-13.632-23.104V429.44q2.048-7.808-0.192-15.616-3.648-12.8-15.232-19.264-11.264-6.4-23.68-3.2-14.912-0.192-25.152 10.752-10.816 10.944-10.688 26.304v114.816q-1.728 9.28-8.96 15.616-7.232 6.4-17.088 6.912-9.6 0.704-17.408-5.12-7.552-5.568-9.728-14.72V268.8q0-15.04-9.792-26.496l-0.192-0.192-0.192-0.192q-10.88-9.984-25.6-10.624H424.448q-16.256 1.088-27.2 12.992-10.88 11.392-10.304 27.072l2.176 299.392v0.128q1.28 24.192-15.104 41.984t-40.512 18.624z m-50.56-8.96q19.776 18.304 46.72 18.56h4.096q28.16-0.896 47.36-21.76 19.008-20.736 17.6-48.832l-2.176-299.328q-0.448-11.776 7.68-20.288 8.32-9.088 20.608-9.984 10.88 0.64 19.072 7.872 7.296 8.64 7.296 20.032v278.336l0.128 0.512q2.88 12.928 13.44 20.8 10.688 7.936 23.872 6.976 12.992-0.64 22.784-9.344 9.856-8.64 12.16-21.504V428.416q-0.064-11.456 7.936-19.584h0.064l0.064-0.064q7.552-8.128 18.624-7.872h0.64l0.704-0.128q9.024-2.432 17.152 2.176 8.192 4.544 10.752 13.568 1.536 5.44 0 10.944l-0.192 0.64v151.04q0.32 21.12 18.56 31.488 18.176 10.368 36.352 0h0.128q17.728-10.816 17.344-31.552v-107.52q0-11.52 7.808-19.84 14.016-10.56 30.336-3.904 16.384 6.656 19.072 24.064v133.44q1.92 13.312 12.096 22.08 10.112 8.704 23.488 8.64 13.632 0.32 23.808-8.64 10.24-9.024 11.52-22.656V514.56q-0.192-11.072 7.36-19.072 7.552-8 18.56-8.32h0.192q11.264-0.896 18.624 7.68l0.128 0.128 0.192 0.128q7.936 7.68 7.808 18.752v166.784q9.472 87.296-25.792 167.68l-0.064 0.192-0.064 0.192q-28.864 86.08-177.408 86.08h-27.328q-58.56 1.024-116.672-6.016-61.056-9.472-97.28-59.456l-0.064-0.064-188.352-235.84-0.256-0.256q-9.6-8.96-9.984-21.952 0.256-12.8 9.856-21.12 10.432-9.088 24.32-9.088 13.76 0 24.256 9.024l11.456 10.368 23.616 22.208z" /></svg>
