<?xml version="1.0" standalone="no"?><!DOCTYPE svg PUBLIC "-//W3C//DTD SVG 1.1//EN" "http://www.w3.org/Graphics/SVG/1.1/DTD/svg11.dtd"><svg class="icon" width="200px" height="200.00px" viewBox="0 0 1024 1024" version="1.1" xmlns="http://www.w3.org/2000/svg"><path fill="#222222" d="M213.312 686.912a123.712 123.712 0 1 1 0 247.488 123.712 123.712 0 0 1 0-247.488z m0 76.8a46.912 46.912 0 1 0 0 93.888 46.912 46.912 0 0 0 0-93.888z m725.376 8.576a38.4 38.4 0 0 1 6.208 76.288l-6.208 0.512H469.312a38.4 38.4 0 0 1-6.208-76.288l6.208-0.512h469.376z m-725.376-384a123.712 123.712 0 1 1 0 247.424 123.712 123.712 0 0 1 0-247.424z m0 76.8a46.912 46.912 0 1 0 0 93.824 46.912 46.912 0 0 0 0-93.824z m725.376 8.512a38.4 38.4 0 0 1 6.208 76.288l-6.208 0.512H469.312a38.4 38.4 0 0 1-6.208-76.288l6.208-0.512h469.376z m-725.376-384a123.712 123.712 0 1 1 0 247.488 123.712 123.712 0 0 1 0-247.488z m0 76.8a46.912 46.912 0 1 0 0 93.888 46.912 46.912 0 0 0 0-93.888z m725.376 8.512a38.4 38.4 0 0 1 6.208 76.288l-6.208 0.512H469.312a38.4 38.4 0 0 1-6.208-76.288l6.208-0.512h469.376z"  /></svg>